G04 ================== begin FILE IDENTIFICATION RECORD ==================*
G04 Layout Name:  HMC472A_PCB_0323_1706.brd*
G04 Film Name:    01_TOP*
G04 File Format:  Gerber RS274X*
G04 File Origin:  Cadence Allegro 16.6-2015-S108*
G04 Origin Date:  Sat Mar 23 17:55:25 2019*
G04 *
G04 Layer:  BOARD GEOMETRY/OUTLINE*
G04 Layer:  ETCH/TOP*
G04 Layer:  PIN/TOP*
G04 Layer:  VIA CLASS/TOP*
G04 *
G04 Offset:    (0.000 0.000)*
G04 Mirror:    No*
G04 Mode:      Positive*
G04 Rotation:  0*
G04 FullContactRelief:  No*
G04 UndefLineWidth:     6.000*
G04 ================== end FILE IDENTIFICATION RECORD ====================*
%FSLAX25Y25*MOIN*%
%IR0*IPPOS*OFA0.00000B0.00000*MIA0B0*SFA1.00000B1.00000*%
%ADD24R,.11024X.11024*%
%ADD30R,.11811X.082681*%
%ADD32R,.04724X.181098*%
%ADD29R,.08465X.137799*%
%ADD20R,.032X.035*%
%ADD16R,.036X.031*%
%ADD14R,.035X.032*%
%ADD11R,.159839X.059839*%
%ADD10C,.022*%
%ADD28O,.01063X.03937*%
%ADD27R,.0315X.0315*%
%ADD18O,.03937X.01063*%
%ADD23R,.03661X.037402*%
%ADD12C,.07087*%
%ADD26R,.011811X.015748*%
%ADD25R,.015748X.011811*%
%ADD15R,.07087X.051181*%
%ADD19R,.08661X.04724*%
%ADD17C,.059059*%
%ADD21C,.062988*%
%ADD13R,.066929X.051181*%
%ADD31R,.07087X.027559*%
%ADD22R,.062988X.062988*%
%ADD33C,.008*%
%ADD34C,.01*%
%ADD35C,.02*%
%ADD36C,.012*%
%ADD37C,.03*%
%ADD38C,.015*%
%ADD39C,.006*%
%ADD50R,.072992X.072992*%
%ADD40C,.118114*%
%ADD41R,.169844X.069844*%
%ADD48R,.046004X.041004*%
%ADD45R,.045004X.042004*%
%ADD42R,.042004X.045004*%
%ADD46R,.041504X.041504*%
%ADD43C,.080874*%
%ADD51C,.092992*%
%ADD47R,.076932X.061184*%
%ADD49R,.096614X.057244*%
%ADD44R,.080874X.061186*%
G75*
%LPD*%
G75*
G36*
G01X76883Y16250D02*
G03X75796Y18024I-4234J-1374D01*
G01X75553Y18267D01*
Y19338D01*
X76512D01*
Y21488D01*
X77691D01*
X79900Y19280D01*
Y16250D01*
X78900D01*
Y9750D01*
X85100D01*
Y16250D01*
X84100D01*
Y19454D01*
G03X82993Y22127I-3780J0D01*
G01X82395Y22725D01*
X82608Y22937D01*
X82708Y22923D01*
G03X83016Y22900I309J2077D01*
G01X84000D01*
G03X84612Y22991I0J2100D01*
G01X84641Y23000D01*
X97621D01*
X97622Y23000D01*
X100378D01*
X100379Y23000D01*
X130000D01*
X131000Y23000D01*
Y2000D01*
X2000D01*
Y23000D01*
X4378D01*
X4379Y23000D01*
X31121D01*
X31122Y23000D01*
X33378D01*
X33379Y23000D01*
X55859D01*
X55888Y22991D01*
G03X56500Y22900I613J2009D01*
G01X56600D01*
G02X56960Y22326I0J-400D01*
G03X56400Y19878I5072J-2448D01*
G01Y16250D01*
X55400D01*
Y9750D01*
X61600D01*
Y15900D01*
X65900D01*
Y9750D01*
X78100D01*
Y16250D01*
X76883D01*
G37*
G36*
G01X4500Y30000D02*
X5000Y30500D01*
X30500D01*
X31000Y30000D01*
Y25000D01*
X30500Y24500D01*
X5000D01*
X4500Y25000D01*
Y30000D01*
G37*
G36*
G01X59718Y55577D02*
G02X59834Y55411I-1399J-1101D01*
G01X59841Y55400D01*
G02X59864Y55361I-1521J-925D01*
G01Y55106D01*
X55612D01*
X54576Y56143D01*
X54545D01*
X48193Y62495D01*
X48231Y62611D01*
G03X45389Y59769I-4231J1389D01*
G01X45506Y59807D01*
X52925Y52388D01*
Y43768D01*
G02X52242Y43486I-400J0D01*
G01X52045Y43682D01*
G03X48863Y45000I-3182J-3182D01*
G01X43250D01*
Y45600D01*
X42500D01*
Y55260D01*
G03X41182Y58442I-4500J0D01*
G01X31544Y68080D01*
Y72663D01*
X21456D01*
Y72349D01*
X21190D01*
X21138Y72388D01*
G03X18464Y73268I-2674J-3620D01*
G01X16156D01*
G03Y68268I-4380J-2500D01*
G01X18257D01*
X18748Y67777D01*
G03X21456Y66261I4039J4039D01*
G01Y64545D01*
X28008D01*
X37500Y55053D01*
Y45600D01*
X36750D01*
Y39400D01*
X43250D01*
Y40000D01*
X48656D01*
X55973Y32683D01*
G02X55690Y32000I-283J-283D01*
G01X33379D01*
X33378Y32000D01*
X31122D01*
X31121Y32000D01*
X21792D01*
Y32032D01*
X2808D01*
Y32000D01*
X2000D01*
Y80000D01*
X42100D01*
Y78027D01*
G03X46010Y77974I1900J-4027D01*
G01X45900Y78029D01*
Y78447D01*
G02X46583Y78730I400J0D01*
G01X49807Y75505D01*
X49769Y75389D01*
G03X52611Y78231I4231J-1389D01*
G01X52495Y78193D01*
X51370Y79317D01*
G02X51653Y80000I283J283D01*
G01X55313D01*
X59807Y75505D01*
X59769Y75389D01*
G03X62611Y78231I4231J-1389D01*
G01X62495Y78193D01*
X61370Y79317D01*
G02X61653Y80000I283J283D01*
G01X76347D01*
G02X76630Y79317I0J-400D01*
G01X75505Y78193D01*
X75389Y78231D01*
G03X78192Y75504I-1389J-4231D01*
G01X80037Y77350D01*
X80146D01*
G02X80464Y76706I0J-400D01*
G03X88191Y75504I3536J-2706D01*
G03X88683Y76067I-4191J4153D01*
G02X89317I317J-243D01*
G03X89809Y75504I4682J3590D01*
G03X98064Y75820I4191J-1504D01*
G01X98047Y75901D01*
G02X98372Y76057I200J0D01*
G02X98712Y75752I-2672J-3317D01*
G01X99625Y74839D01*
X99608Y74737D01*
G03X103263Y78392I4392J-737D01*
G01X103161Y78375D01*
X102248Y79288D01*
G03X102220Y79316I-6550J-6545D01*
G02X102501Y80000I282J284D01*
G01X131000D01*
Y32000D01*
X130000D01*
X100379Y32000D01*
X100378Y32000D01*
X97622D01*
X97621Y32000D01*
X85141D01*
X85112Y32009D01*
G03X84500Y32100I-613J-2009D01*
G01X82114D01*
X82014Y32000D01*
X79662D01*
Y34512D01*
X77512D01*
Y37465D01*
X80381Y40334D01*
X81009D01*
G03X84497Y41778I0J4932D01*
G01X85612Y42894D01*
X89075D01*
Y48956D01*
X95075D01*
Y51893D01*
X102873Y59690D01*
X102981Y59665D01*
G03X99665Y62981I1019J4335D01*
G01X99690Y62873D01*
X98825Y62007D01*
G02X98168Y62431I-283J283D01*
G03X89769Y62611I-4168J1569D01*
G01X89807Y62495D01*
X85828Y58515D01*
G03X84174Y55275I4172J-4172D01*
G01X84147Y55106D01*
X81900D01*
Y59213D01*
X82494Y59807D01*
X82611Y59769D01*
G03X79769Y62611I1389J4231D01*
G01X79807Y62495D01*
X79172Y61859D01*
G03X78100Y59271I2588J-2588D01*
G01Y55106D01*
X75900D01*
Y59973D01*
G03X72100I-1900J4027D01*
G01Y55106D01*
X69900D01*
Y59271D01*
G03X68828Y61859I-3660J0D01*
G01X68192Y62496D01*
G03X65504Y59809I-4191J1504D01*
G01X66100Y59213D01*
Y55106D01*
X63867D01*
X63842Y55278D01*
G03X63537Y56457I-5522J-802D01*
G03X62266Y58422I-5217J-1982D01*
G03X62255Y58432I-1349J-1338D01*
G01X58191Y62496D01*
G03X55389Y59769I-4191J1504D01*
G01X55506Y59807D01*
X59568Y55745D01*
G03X59578Y55734I1349J1338D01*
G02X59718Y55577I-1259J-1258D01*
G37*
G36*
G01X67587Y140250D02*
X67429Y140408D01*
G02X67570Y140750I141J141D01*
G01X70100D01*
Y145250D01*
X65900D01*
Y142903D01*
G02X65217Y142620I-400J0D01*
G01X61165Y146672D01*
G03X56993Y148400I-4172J-4172D01*
G01X47626D01*
Y154307D01*
X40436D01*
X39788Y154955D01*
G02X40071Y155638I283J283D01*
G01X47626D01*
Y156500D01*
X60472D01*
Y151110D01*
X71956D01*
Y150337D01*
X82044D01*
Y151429D01*
X82218Y151452D01*
G03X86108Y153365I-863J6666D01*
G01X86493Y153750D01*
X88600D01*
Y154000D01*
X89000D01*
G03Y160000I0J3000D01*
G01X88600D01*
Y160250D01*
X82400D01*
Y158455D01*
X77184D01*
X75818Y159821D01*
G03X71938Y162127I-6467J-6467D01*
G01Y167890D01*
X60472D01*
Y162500D01*
X47626D01*
Y163362D01*
X35600D01*
Y165250D01*
X31400D01*
Y161809D01*
G02X30717Y161526I-400J0D01*
G01X30044Y162199D01*
Y169663D01*
X19956D01*
X19733Y169571D01*
X19460Y169843D01*
X15940D01*
G03X15881Y163765I-4054J-3000D01*
G01X15941Y163843D01*
X16975D01*
X18214Y162604D01*
X19956D01*
Y161545D01*
X22212D01*
X26619Y157138D01*
G02X26336Y156455I-283J-283D01*
G01X20956D01*
Y150337D01*
X29044D01*
Y153748D01*
G02X29726Y154031I400J0D01*
G01X29757Y154000D01*
X30400D01*
Y153750D01*
X32507D01*
X35964Y150293D01*
Y146583D01*
X40930D01*
G02X41213Y145900I0J-400D01*
G01X39167Y143854D01*
G03X37439Y139682I4172J-4172D01*
G01Y134059D01*
X34492D01*
Y125941D01*
X40288D01*
G02X40571Y125258I0J-400D01*
G01X39167Y123854D01*
G03X37439Y119682I4172J-4172D01*
G01Y118559D01*
X34492D01*
Y110441D01*
X40258D01*
G02X40639Y109917I0J-400D01*
G03X40350Y108094I5611J-1824D01*
G01Y106198D01*
X39167Y105015D01*
G03X37694Y102559I4172J-4172D01*
G01X34492D01*
Y94441D01*
X42100D01*
Y89500D01*
X34122D01*
G03X34086Y89500I-37J-3414D01*
G01X6707D01*
G03X6682Y89500I1J-1707D01*
G01X2000D01*
Y200500D01*
X131000D01*
Y89500D01*
X128237D01*
Y100662D01*
X113425D01*
Y89500D01*
X93102D01*
G02X92789Y90149I0J400D01*
G03X93900Y93334I-4010J3185D01*
G01Y105343D01*
G03X92993Y108487I-5900J0D01*
G02X93332Y109100I339J213D01*
G01X97271D01*
G03X99859Y110172I0J3660D01*
G01X100472Y110784D01*
G02X101145Y110588I283J-283D01*
G03X101656Y109656I1855J412D01*
G01X102248Y109065D01*
X103582D01*
Y103181D01*
X113670D01*
Y103558D01*
X113961D01*
X113982Y103554D01*
G03X117000Y106000I519J2446D01*
G01Y107564D01*
X117159Y107724D01*
G03X118500Y110961I-3237J3237D01*
G01Y122036D01*
X115014Y125522D01*
G02X115297Y126205I283J283D01*
G01X128237D01*
Y137473D01*
X124362D01*
Y158372D01*
X122225D01*
G03X120450Y161379I-6725J-1943D01*
G01X118442Y163387D01*
G03X115754Y164500I-2687J-2687D01*
G01X109100D01*
Y166500D01*
X116754D01*
G03X119442Y167613I0J3800D01*
G01X120485Y168656D01*
G03X122033Y171028I-4865J4865D01*
G03X122325Y171978I-6413J2493D01*
G01X122360Y172128D01*
X124362D01*
Y193238D01*
X116638D01*
Y172128D01*
X117975D01*
Y171863D01*
G02X117785Y171623I-2355J1658D01*
G02X117656Y171485I-2166J1898D01*
G01X116672Y170500D01*
X109100D01*
Y171750D01*
X102900D01*
Y167500D01*
X102475D01*
G03X100250Y166578I0J-3147D01*
G01X96429Y162758D01*
G03X94500Y158100I4658J-4658D01*
G01Y156829D01*
X83172Y145500D01*
X81900D01*
G03X77242Y143571I0J-6587D01*
G01X71783Y138112D01*
G02X71100Y138395I-283J283D01*
G01Y140250D01*
X67587D01*
G37*
G36*
G01X34000Y24500D02*
X33500Y25000D01*
Y30000D01*
X34000Y30500D01*
X57500D01*
X60338Y27662D01*
Y27338D01*
X57500Y24500D01*
X34000D01*
G37*
G36*
G01X49414Y99086D02*
X50970Y100641D01*
X53902D01*
G03X54514Y100736I0J2032D01*
G02X54717Y100404I60J-191D01*
G02X54713Y100400I-948J920D01*
G01X54600Y100287D01*
G03X53100Y96666I3621J-3621D01*
G01Y89500D01*
X47400D01*
Y98108D01*
G02X47834Y98507I400J0D01*
G03X49414Y99086I167J1993D01*
G37*
G36*
G01X47400Y103695D02*
Y107632D01*
X48332Y108564D01*
G02X49012Y108330I283J-283D01*
G03X49251Y107594I2016J249D01*
G03X50017Y104847I1777J-985D01*
G03X50000Y104560I1011J-205D01*
G03X48231Y103560I919J-3688D01*
G01X48083Y103412D01*
G02X47400Y103695I-283J283D01*
G37*
G36*
G01X59157Y100179D02*
G03X58802Y100334I-985J-1777D01*
G03X58900Y101334I-5023J1000D01*
G01Y108019D01*
G03X57650Y111037I-4268J0D01*
G01X57400Y111287D01*
Y112447D01*
X55941D01*
X55930Y112635D01*
G03X55680Y113500I-2028J-119D01*
G03X55679Y115468I-1778J984D01*
G03X55930Y116333I-1777J985D01*
G01X55941Y116521D01*
X58000D01*
G03Y120321I0J1900D01*
G01X55941D01*
X55930Y120509D01*
G03X55680Y121374I-2028J-119D01*
G03X55679Y123343I-1778J984D01*
G03X53902Y126359I-1777J985D01*
G01X51028D01*
G03X50341Y126239I0J-2032D01*
G01X50308Y126227D01*
X49960D01*
X49344Y126844D01*
G03X46232Y124804I-1344J-1344D01*
G02X45859Y124258I-372J-146D01*
G01X45500D01*
G03X45210Y124236I0J-1900D01*
G02X45009Y124539I-31J198D01*
G03X45900Y127657I-5009J3118D01*
G01Y131797D01*
G03X45899Y131886I-3980J-1D01*
G02X46534Y132218I400J9D01*
G03X48310Y131341I3466J4782D01*
G02X48585Y130868I-114J-383D01*
G03X48692Y130495I390J-90D01*
G01X51287Y127900D01*
X56260D01*
X56313Y127781D01*
G03X56612Y127298I1860J817D01*
G03X59344Y124656I1388J-1298D01*
G01X60873Y126186D01*
G03X61324Y126724I-2822J2823D01*
G03X63094Y126821I786J1874D01*
G03X65841Y127587I985J1777D01*
G03X66254Y127587I206J1011D01*
G03X69000Y126820I1762J1011D01*
G03X70968Y126821I984J1778D01*
G03X72937Y126820I985J1777D01*
G03X74906Y126821I984J1778D01*
G03X76874Y126820I985J1777D01*
G03X78843Y126821I984J1778D01*
G03X81859Y128598I985J1777D01*
G01Y131472D01*
G03X81830Y131812I-2032J0D01*
G01X81827Y131829D01*
Y133999D01*
X82414Y134586D01*
G03X81435Y137952I-1414J1414D01*
G02X81239Y138626I87J390D01*
G01X81720Y139106D01*
X83099D01*
G03X87941Y141112I0J6847D01*
G01X94440Y147611D01*
G02X95071Y147524I283J-283D01*
G03X95483Y146982I2179J1225D01*
G01X104000Y138464D01*
Y131536D01*
X100464Y128000D01*
X91000D01*
G03X88641Y126327I0J-2500D01*
G01X87329D01*
X87312Y126330D01*
G03X86972Y126359I-340J-2003D01*
G01X84098D01*
G03X83087Y122565I0J-2032D01*
G03X83087Y122153I1011J-207D01*
G03X82321Y119406I1011J-1762D01*
G03X82320Y117437I1777J-985D01*
G03X82321Y115468I1778J-984D01*
G03X82320Y113500I1777J-985D01*
G03X82321Y111532I1778J-984D01*
G03X82161Y111160I1777J-985D01*
G02X81445Y111062I-381J121D01*
G03X80672Y112015I-4944J-3220D01*
G01X78844Y113844D01*
G03X76156Y111156I-1344J-1344D01*
G01X76313Y111000D01*
X76171Y110858D01*
X76170Y110857D01*
G03X76156Y110844I1337J-1350D01*
G01X72239Y106927D01*
G02X71616Y106999I-283J283D01*
G03X68656Y107344I-1616J-999D01*
G01X67608Y106295D01*
G03X66116Y102693I3602J-3602D01*
G01Y100630D01*
G02X65928Y100430I-200J0D01*
G03X65063Y100180I119J-2028D01*
G03X63094Y100179I-984J-1778D01*
G03X61126Y100180I-985J-1777D01*
G03X59157Y100179I-984J-1778D01*
G37*
G36*
G01X56900Y89500D02*
Y93258D01*
G02X57444Y93632I400J0D01*
G03X59157Y93751I729J1896D01*
G03X61126Y93750I985J1777D01*
G03X63094Y93751I984J1778D01*
G03X65063Y93750I985J1777D01*
G03X67032Y93751I984J1778D01*
G03X69000Y93750I985J1777D01*
G03X70968Y93751I984J1778D01*
G03X72937Y93750I985J1777D01*
G03X74906Y93751I984J1778D01*
G03X77652Y94517I985J1777D01*
G03X77993Y94505I205J1011D01*
G03X79153Y92519I4360J1214D01*
G01X80586Y91086D01*
G03X83926Y91961I1414J1414D01*
G02X84354Y92251I385J-108D01*
G03X84493Y92261I42J398D01*
G02X84721Y91977I49J-194D01*
G03X84110Y89688I5280J-2634D01*
G01X84099Y89500D01*
X56900D01*
G37*
G36*
G01X83500Y24500D02*
X80662Y27338D01*
Y27662D01*
X83500Y30500D01*
X97000D01*
X97500Y30000D01*
Y25000D01*
X97000Y24500D01*
X83500D01*
G37*
G36*
G01X91491Y112900D02*
X91282Y113108D01*
G02X91424Y113450I141J141D01*
G01X95650D01*
Y119550D01*
X89364D01*
G02X88970Y120023I0J400D01*
G03X88546Y121674I-1998J368D01*
G02X88856Y122327I310J253D01*
G01X89098D01*
G03X91244Y123000I0J3761D01*
G01X100672D01*
G03X103854Y124318I0J4500D01*
G01X106500Y126964D01*
X110088Y123376D01*
G02X109806Y122693I-283J-283D01*
G01X104582D01*
Y118772D01*
X103582D01*
Y117716D01*
X103421Y117685D01*
G03X101553Y116976I1130J-5791D01*
G02X100950Y117321I-203J345D01*
G01Y118550D01*
X96350D01*
Y114450D01*
X97797D01*
G02X98080Y113767I0J-400D01*
G01X97213Y112900D01*
X91491D01*
G37*
G36*
G01X100500Y30000D02*
X101000Y30500D01*
X128500D01*
Y24500D01*
X101000D01*
X100500Y25000D01*
Y30000D01*
G37*
G36*
G01X116638Y158372D02*
Y137473D01*
X113425D01*
Y128076D01*
G02X112743Y127793I-400J0D01*
G01X109000Y131536D01*
Y138671D01*
G03X107682Y141854I-4500J0D01*
G01X99018Y150517D01*
G03X98476Y150929I-1768J-1768D01*
G02X98389Y151560I196J349D01*
G01X98995Y152166D01*
G03X101000Y157007I-4842J4842D01*
G01Y158387D01*
X102457Y159843D01*
G02X102568Y159947I1587J-1585D01*
G01X102575Y159953D01*
G02X102627Y159997I1467J-1697D01*
G01X102900D01*
Y159250D01*
X109100D01*
Y160500D01*
X115672D01*
X117116Y159055D01*
G02X116834Y158372I-283J-283D01*
G01X116638D01*
G37*
%LPC*%
G75*
G36*
G01X74900Y177565D02*
G03X75242Y177424I200J0D01*
G01X75409Y177591D01*
G02X78591Y174409I1591J-1591D01*
G01X77485Y173303D01*
G02X73736Y171750I-3749J3749D01*
G01X60185D01*
G02X53291Y174606I0J9750D01*
G01X48866Y179031D01*
X48755Y179002D01*
G02X47114Y178874I-1176J4498D01*
G03X46681Y178547I-40J-398D01*
G02X46570Y178336I-394J71D01*
G01X41583Y173348D01*
G02X40900Y173631I-283J283D01*
G01Y175213D01*
X44900Y179213D01*
Y179698D01*
X44819Y179758D01*
G02X43208Y185087I2760J3742D01*
G02X41610Y189540I5401J4453D01*
G01Y192130D01*
X34060D01*
Y193600D01*
X32950D01*
Y192450D01*
X26350D01*
Y198550D01*
X32950D01*
Y197400D01*
X34060D01*
Y198870D01*
X46940D01*
Y192130D01*
X45610D01*
Y189540D01*
G03X46094Y187906I3000J0D01*
G02X52077Y182324I1485J-4406D01*
G01X52048Y182213D01*
X52444Y181817D01*
G03X53111Y182210I283J283D01*
G02X56289Y179033I4467J1290D01*
G03X55895Y178366I-111J-384D01*
G01X56473Y177788D01*
G03X60185Y176250I3712J3712D01*
G01X71100D01*
Y176453D01*
X71100Y176455D01*
G02X71100Y176500I1900J44D01*
G01Y179531D01*
G03X70453Y179845I-400J0D01*
G02X70838Y186816I-2874J3655D01*
G03X71492Y186958I280J285D01*
G02X72828Y189015I5508J-2115D01*
G01X79485Y195672D01*
G02X83657Y197400I4172J-4172D01*
G01X84560D01*
Y198870D01*
X97440D01*
Y197400D01*
X98050D01*
Y198550D01*
X104650D01*
Y192450D01*
X98050D01*
Y193600D01*
X97440D01*
Y192130D01*
X84560D01*
Y193600D01*
X83657D01*
G03X82172Y192985I0J-2100D01*
G01X77974Y188787D01*
G03X78203Y188108I283J-283D01*
G02X75481Y179351I-625J-4607D01*
G03X74900Y178994I-181J-357D01*
G01Y177565D01*
G37*
G54D50*
X37579Y183500D03*
G54D40*
X34500Y10500D03*
X98500Y10000D03*
X94500Y137500D03*
G54D41*
X12300Y17540D03*
X120500Y17500D03*
X12300Y37540D03*
X120500Y37500D03*
G54D48*
X23350Y195500D03*
X107650D03*
G54D45*
X34000Y42500D03*
G54D42*
X69000Y7000D03*
X75000D03*
X58500D03*
X82000D03*
X85500Y163000D03*
X106000Y174500D03*
Y156500D03*
G54D46*
X92000Y45969D03*
G54D43*
X11776Y55768D03*
X11886Y151843D03*
G54D51*
X97579Y183500D03*
X87579D03*
G54D47*
X6661Y98500D03*
Y114500D03*
Y130000D03*
G54D49*
X41795Y168555D03*
G54D44*
X26500Y56396D03*
X77000Y166604D03*
%LPD*%
G75*
G54D10*
G01X34747Y33500D02*
X29747D01*
G01X34500Y21500D02*
X29500D01*
G01X22540Y17540D02*
X17300D01*
G01D02*
X12300D01*
G01X22300Y37540D02*
X22960D01*
X26184Y34316D01*
G03X28154Y33500I1970J1969D01*
G01X29747D01*
G01X22540Y17540D02*
X25595Y20595D01*
G02X27780Y21500I2185J-2185D01*
G01X29500D01*
G01X22300Y37540D02*
X17300D01*
G01D02*
X12300D01*
G01X39747Y33500D02*
X34747D01*
G01X44747D02*
X39747D01*
G01X49747D02*
X44747D01*
G01X54747D02*
X49747D01*
G01X39500Y21500D02*
X34500D01*
G01X44500D02*
X39500D01*
G01X49500D02*
X44500D01*
G01X54500D02*
X49500D01*
G01X95500Y33500D02*
X100500D01*
G01X90500D02*
X95500D01*
G01X85500D02*
X90500D01*
G01X85500Y21500D02*
X90500D01*
G01D02*
X95500D01*
G01D02*
X100500D01*
G01X105500Y33500D02*
X106500D01*
X110500Y37500D01*
G01X100500Y33500D02*
X105500D01*
G01X100500Y21500D02*
X105500D01*
G01X115500Y17500D02*
X120500D01*
G01X105500Y21500D02*
X109500Y17500D01*
G01D02*
X115500D01*
G01X110500Y37500D02*
X115500D01*
G01D02*
X120500D01*
X3500Y3500D03*
X8500D03*
X3500Y13500D03*
Y8500D03*
Y33500D03*
X7300Y17540D03*
X3500Y18500D03*
X7300Y37540D03*
X3500Y53500D03*
Y48500D03*
Y43500D03*
Y38500D03*
X8000Y63500D03*
X8500Y78500D03*
X3500D03*
Y73500D03*
Y68500D03*
Y63500D03*
Y58500D03*
X6661Y93839D03*
Y109839D03*
Y119661D03*
Y103661D03*
Y140161D03*
Y125339D03*
Y135161D03*
Y150161D03*
Y160161D03*
Y175161D03*
Y185161D03*
Y190161D03*
Y195161D03*
X22500Y9500D03*
X14500D03*
X13500Y3500D03*
X18500D03*
X23500D03*
X28500D03*
X29500Y18000D03*
X29747Y33500D03*
X12300Y17540D03*
X17300D03*
X22540D03*
X29500Y21500D03*
X28500Y39500D03*
X17000Y49500D03*
X23500Y46000D03*
X11000D03*
X12300Y37540D03*
X17300D03*
X22300D03*
X26000Y63000D03*
X17500Y62500D03*
X28500Y78500D03*
X23500D03*
X18500D03*
X13500D03*
X31661Y95161D03*
X25161D03*
X16661D03*
Y105161D03*
Y115161D03*
X25161Y105161D03*
Y115161D03*
X16661Y125161D03*
Y135161D03*
X25161Y125161D03*
Y135161D03*
X16661Y145161D03*
X25161D03*
X25000Y148235D03*
X16661Y185161D03*
Y175161D03*
X26661D03*
Y185161D03*
X31661Y175161D03*
X11661Y195161D03*
X16661Y190161D03*
X26661D03*
X19500Y195500D03*
X52500Y9500D03*
X45000D03*
X43500Y3500D03*
X48500D03*
X53500D03*
X33500D03*
X38500D03*
X51500Y16500D03*
X43500Y17000D03*
X49747Y33500D03*
X44747D03*
X39747D03*
X34747D03*
X49500Y21500D03*
X44500D03*
X39500D03*
X34500D03*
X35000Y54000D03*
X50000Y46500D03*
Y50500D03*
X46000Y48500D03*
Y53500D03*
X38500Y69500D03*
X33500Y78500D03*
X52000Y96000D03*
Y92500D03*
X48500D03*
X48000Y100500D03*
X45500Y122358D03*
X48000Y119500D03*
X38000Y107500D03*
X36500Y122500D03*
X48000Y106000D03*
Y125500D03*
X50500Y165500D03*
X49500Y149500D03*
Y155000D03*
X33000Y151500D03*
X47725Y168555D03*
X33500Y168161D03*
X52000Y195500D03*
X73500Y3500D03*
X58500D03*
X63500D03*
X68500D03*
X74500Y24500D03*
X70500D03*
X66500D03*
Y28500D03*
Y32500D03*
X70500D03*
X74500D03*
Y28500D03*
X70500D03*
X54747Y33500D03*
X54500Y21500D03*
X62500Y92500D03*
X72858D03*
X67858D03*
X57858D03*
X70000Y106000D03*
Y113000D03*
X64000D03*
Y105500D03*
Y120500D03*
X58000Y118421D03*
Y126000D03*
X57500Y134000D03*
X64000Y135500D03*
X68000Y147000D03*
X63500D03*
X73000D03*
X68000Y150000D03*
X63500Y177500D03*
X73000Y176500D03*
X72000Y195500D03*
X67000D03*
X62000D03*
X57000D03*
X89000Y9500D03*
X78500Y3500D03*
X83500D03*
X88500D03*
X93500D03*
X89500Y17000D03*
X85500Y33500D03*
X90500D03*
X95500D03*
X82000D03*
X95500Y21500D03*
X90500D03*
X85500D03*
X90500Y38500D03*
X96500Y92500D03*
X77858D03*
X82000D03*
X81000Y120500D03*
X91000D03*
X94500D03*
X81000Y117500D03*
X89204Y112500D03*
X77500D03*
Y106000D03*
Y109500D03*
X85000Y136000D03*
X81000D03*
X91000Y125500D03*
X93500Y157000D03*
X97250Y148750D03*
X89000Y157000D03*
X97000Y174500D03*
Y167500D03*
X91500Y170000D03*
X83500Y180000D03*
X77000Y171500D03*
Y176000D03*
Y195500D03*
X109500Y9500D03*
X103500Y3500D03*
X108500D03*
X113500D03*
X118500D03*
X99000Y18000D03*
X100500Y33500D03*
X105500D03*
X109500Y17500D03*
X115500D03*
X105500Y21500D03*
X100500D03*
X98500Y38500D03*
X115500Y53500D03*
Y43500D03*
X110500D03*
Y53500D03*
X105500D03*
Y43500D03*
Y38500D03*
X115500Y37500D03*
X110500D03*
Y73500D03*
X115500D03*
Y63500D03*
X118500Y78500D03*
X113500D03*
X108500D03*
X102000Y92500D03*
X107500D03*
X112000D03*
X103500Y103500D03*
X98650Y120500D03*
X103000D03*
Y111000D03*
X114500Y106000D03*
X116000Y120941D03*
X100000Y130500D03*
X102500Y137000D03*
X106000Y146500D03*
X115000Y145000D03*
Y152000D03*
Y156500D03*
X111000D03*
X106000Y152000D03*
Y184000D03*
X112000Y184500D03*
Y178500D03*
Y172500D03*
X106000Y179000D03*
Y190000D03*
X112000D03*
X119000Y195500D03*
X112000D03*
X121500Y9000D03*
X123500Y3500D03*
X128500D03*
Y8500D03*
Y13500D03*
X120500Y17500D03*
X125500D03*
X120500Y53500D03*
Y43500D03*
X128500D03*
Y48500D03*
Y53500D03*
X120500Y37500D03*
X125500D03*
X120500Y73500D03*
Y63500D03*
X128500D03*
Y68500D03*
Y73500D03*
Y78500D03*
X123500D03*
X128500Y58500D03*
X129500Y92500D03*
Y98000D03*
Y105000D03*
X123000D03*
Y112500D03*
X129500D03*
X126500Y145000D03*
Y152000D03*
Y163500D03*
Y173500D03*
Y183500D03*
Y193500D03*
Y199000D03*
G54D11*
X12300Y17540D03*
Y27540D03*
Y37540D03*
X120500Y27500D03*
Y17500D03*
Y37500D03*
G54D20*
X33500Y157000D03*
Y163000D03*
X69000Y7000D03*
Y13000D03*
X75000Y7000D03*
Y13000D03*
X58500Y7000D03*
Y13000D03*
X68000Y137000D03*
Y143000D03*
X82000Y7000D03*
Y13000D03*
X85500Y157000D03*
Y163000D03*
X106000Y156500D03*
Y162500D03*
Y174500D03*
Y168500D03*
G54D21*
X47579Y183500D03*
X77579D03*
X67579D03*
X57579D03*
X97579D03*
X87579D03*
G54D12*
X11776Y55768D03*
Y70768D03*
X11886Y151843D03*
Y166843D03*
G54D30*
X120831Y95028D03*
Y131839D03*
G54D22*
X37579Y183500D03*
G54D31*
X108626Y120815D03*
Y115894D03*
Y110965D03*
Y106059D03*
G54D13*
X6661Y98500D03*
Y114500D03*
Y130000D03*
X39339Y98500D03*
Y114500D03*
Y130000D03*
G54D23*
X37390Y195500D03*
X43610D03*
X94110D03*
X87890D03*
G54D14*
X29500Y27500D03*
X35500D03*
X34000Y42500D03*
X40000D03*
X96100Y27478D03*
X102100D03*
G54D32*
X120500Y147817D03*
Y182683D03*
G54D33*
G01X29650Y195500D02*
X37390D01*
G01X56000Y52031D02*
X53789Y54242D01*
X53758D01*
X44000Y64000D01*
G01X52465Y112516D02*
X50951D01*
G03X48639Y111558I0J-3270D01*
G01X46016Y108935D01*
G03X45500Y107690I1245J-1245D01*
G01Y84157D01*
G03X46672Y81328I4000J0D01*
G01X54000Y74000D01*
G01X44000D02*
Y107343D01*
G02X45172Y110172I4000J0D01*
G01X48486Y113486D01*
G02X50894Y114484I2408J-2408D01*
G01X52465D01*
G01X39339Y98500D02*
Y100843D01*
G02X40511Y103672I4000J0D01*
G01X41735Y104896D01*
G03X42250Y106140I-1245J1245D01*
G01Y108093D01*
G02X43422Y110922I4000J0D01*
G01X47782Y115282D01*
G02X50610Y116453I2829J-2829D01*
G01X52465D01*
G01X48000Y119500D02*
X48502Y120002D01*
G02X49440Y120390I938J-938D01*
G01X52465D01*
G01X64000Y74000D02*
X56172Y81828D01*
G02X55000Y84657I2829J2829D01*
G01Y96666D01*
G02X55943Y98944I3221J0D01*
G01X56057Y99056D01*
G03X57000Y101334I-2278J2278D01*
G01Y108019D01*
G03X56307Y109694I-2368J0D01*
G01X55500Y110500D01*
Y110547D01*
X52465D01*
G01X58000Y118421D02*
X52465D01*
G01X39339Y114500D02*
Y119682D01*
G02X40511Y122511I4000J0D01*
G01X42828Y124828D01*
G03X44000Y127657I-2829J2828D01*
G01Y131797D01*
G03X43391Y133268I-2080J0D01*
G01X42944Y133715D01*
G02X42000Y135993I2278J2278D01*
G01Y139843D01*
G02X43172Y142672I4000J0D01*
G01X44328Y143828D01*
G02X47157Y145000I2829J-2829D01*
G01X55843D01*
G02X58672Y143828I0J-4000D01*
G01X59828Y142672D01*
G02X61000Y139843I-2829J-2828D01*
G01Y136235D01*
G03X61498Y135032I1702J0D01*
G01X61611Y134919D01*
G02X62110Y133715I-1203J-1203D01*
G01Y130035D01*
G01X45500Y122358D02*
X52465D01*
G01X48000Y125500D02*
X48643Y124857D01*
G03X49922Y124327I1279J1279D01*
G01X52465D01*
G01X39339Y130000D02*
Y139682D01*
G02X40511Y142511I4000J0D01*
G01X43328Y145328D01*
G02X46157Y146500I2829J-2829D01*
G01X56993D01*
G02X59822Y145328I0J-4000D01*
G01X68000Y137150D01*
Y137000D01*
G01X67547Y36374D02*
Y38765D01*
G03X66375Y41594I-4000J0D01*
G01X62000Y45969D01*
G01X74000Y52031D02*
Y64000D01*
G01X80000Y45969D02*
X74474Y40443D01*
G03X73453Y37978I2465J-2465D01*
G01Y36374D01*
G01X64000Y64000D02*
X67484Y60516D01*
G02X68000Y59271I-1245J-1245D01*
G01Y52031D01*
G01X56000Y45969D02*
X59797Y42172D01*
G03X62626Y41000I2829J2829D01*
G01X63354D01*
G02X65579Y38775I0J-2225D01*
G01Y36374D01*
G01X54000Y64000D02*
X60922Y57078D01*
G02X62000Y54476I-2602J-2602D01*
G01Y52031D01*
G01X71484Y36374D02*
Y41796D01*
G02X72656Y44624I4000J0D01*
G01X74000Y45969D01*
G01X68000D02*
X68815Y45154D01*
G02X69516Y43461I-1694J-1694D01*
G01Y36374D01*
G01X85535Y106610D02*
X87348D01*
G02X89000Y104957I0J-1652D01*
G01Y95657D01*
G02X87828Y92828I-4000J0D01*
G01X87172Y92172D01*
G03X86000Y89343I2829J-2828D01*
G01Y82545D01*
G02X82705Y79250I-3295J0D01*
G01X79979D01*
G03X78734Y78734I0J-1760D01*
G01X74000Y74000D01*
G01X70000Y106000D02*
X68952Y104952D01*
G03X68016Y102693I2258J-2258D01*
G01Y96965D01*
G01X77500Y109500D02*
X71156Y103156D01*
G03X69984Y100327I2829J-2828D01*
G01Y96965D01*
G01X58000Y126000D02*
X59529Y127529D01*
G03X60142Y129009I-1479J1479D01*
G01Y130035D01*
G01X58173D02*
Y132931D01*
G03X57893Y133607I-956J0D01*
G01X57500Y134000D01*
G01X68016Y130035D02*
Y134334D01*
X68000Y134350D01*
Y137000D01*
G01X73000Y176500D02*
Y184843D01*
G02X74172Y187672I4000J0D01*
G01X80828Y194328D01*
G02X83657Y195500I2829J-2829D01*
G01X87890D01*
G01X84000Y64000D02*
X80516Y60516D01*
G03X80000Y59271I1245J-1245D01*
G01Y52031D01*
G01X86000Y45969D02*
X83153Y43122D01*
G02X81009Y42234I-2144J2144D01*
G01X80323D01*
G03X79078Y41719I0J-1760D01*
G01X75961Y38602D01*
G03X75421Y37298I1304J-1304D01*
G01Y36374D01*
G01X86000Y52031D02*
Y54343D01*
G02X87172Y57172I4000J0D01*
G01X94000Y64000D01*
G01X85535Y108579D02*
X87049D01*
G02X89361Y107621I0J-3270D01*
G01X89508Y107474D01*
G02X90500Y105080I-2394J-2394D01*
G01Y94657D01*
G02X89328Y91828I-4000J0D01*
G01X89172Y91672D01*
G03X88000Y88843I2829J-2828D01*
G01Y79657D01*
G02X86828Y76828I-4000J0D01*
G01X84000Y74000D01*
G01X94000D02*
X91172Y76828D01*
G02X90000Y79657I2829J2829D01*
G01Y88666D01*
G02X90944Y90944I3221J0D01*
G01X91056Y91056D01*
G03X92000Y93334I-2278J2278D01*
G01Y105343D01*
G03X90828Y108172I-4000J0D01*
G01X88600Y110400D01*
X88550D01*
X88404Y110547D01*
X85535D01*
G01X77500Y106000D02*
X76639Y105139D01*
G03X75890Y103332I1807J-1807D01*
G01Y96965D01*
G01X92350Y116500D02*
X89519D01*
X89472Y116453D01*
X85535D01*
G01X77500Y112500D02*
X79328Y110672D01*
G02X80500Y107843I-2829J-2828D01*
G01Y104000D01*
G03X81827Y102673I1327J0D01*
G01X85535D01*
G01X89204Y112500D02*
X90188Y111515D01*
G03X91433Y111000I1245J1245D01*
G01X97271D01*
G03X98515Y111515I0J1760D01*
G01X101722Y114722D01*
G02X104551Y115894I2829J-2829D01*
G01X108626D01*
G01X94110Y195500D02*
X101350D01*
G01X103000Y111000D02*
X103035Y110965D01*
X108626D01*
G54D15*
X26500Y56396D03*
Y68604D03*
X25000Y153396D03*
Y165604D03*
X77000Y166604D03*
Y154396D03*
G54D24*
X70500Y28500D03*
G54D34*
G01X48000Y106000D02*
X49358Y104642D01*
G01D02*
X52465D01*
G01Y102673D02*
X50918D01*
G03X49646Y102146I0J-1800D01*
G01X48000Y100500D01*
G01X43610Y195500D02*
Y189540D01*
G03X45074Y186004I5000J0D01*
G01X47579Y183500D01*
G01X64000Y120500D02*
X66047Y122547D01*
G01D02*
Y130035D01*
G01X71953D02*
Y131211D01*
G02X72644Y132878I2357J0D01*
G01X78296Y138531D01*
X78316D01*
X80364Y140579D01*
G02X81637Y141107I1273J-1273D01*
G01X83099D01*
G03X86526Y142526I0J4847D01*
G01X97580Y153580D01*
G03X99000Y157008I-3427J3427D01*
G01Y158470D01*
G02X99527Y159742I1800J0D01*
G01X101042Y161257D01*
G02X104042Y162500I3000J-3000D01*
G01X106000D01*
G01Y168500D02*
Y168350D01*
G02X103150Y165500I-2850J0D01*
G01X102475D01*
G03X101664Y165164I0J-1147D01*
G01X97844Y161344D01*
G03X96500Y158100I3244J-3244D01*
G01Y156746D01*
G02X95973Y155473I-1800J0D01*
G01X84527Y144027D01*
G02X83254Y143500I-1273J1273D01*
G01X81900D01*
G03X78656Y142156I0J-4587D01*
G01X71133Y134633D01*
G03X69984Y131859I2773J-2773D01*
G01Y130035D01*
G01X64000Y135500D02*
Y134500D01*
X64079Y134421D01*
Y130035D01*
G01X77858Y96965D02*
Y92500D01*
G01X79827Y96965D02*
Y95719D01*
G03X80567Y93933I2526J0D01*
G01X82000Y92500D01*
G01X91000Y120500D02*
X90000Y121500D01*
G01D02*
G03X87928Y122358I-2072J-2072D01*
G01X85535D01*
G01X79827Y130035D02*
Y134098D01*
G02X80343Y135343I1761J0D01*
G01X81000Y136000D01*
G01X85535Y124327D02*
X89098D01*
G03X90343Y124843I0J1761D01*
G01X91000Y125500D01*
G01X106000Y162500D02*
X115754D01*
G02X117027Y161973I0J-1800D01*
G01X119036Y159964D01*
G02X120500Y156429I-3536J-3536D01*
G01Y147817D01*
G01X106000Y168500D02*
X116754D01*
G03X118027Y169027I0J1800D01*
G01X119071Y170071D01*
G03X120500Y173521I-3451J3451D01*
G01Y182683D01*
G54D25*
X62626Y23579D03*
Y25547D03*
Y27516D03*
Y29484D03*
Y31453D03*
Y33421D03*
X78374Y23579D03*
Y25547D03*
Y27516D03*
Y29484D03*
Y31453D03*
Y33421D03*
G54D16*
X23350Y195500D03*
X29650D03*
X92350Y116500D03*
X98650D03*
X107650Y195500D03*
X101350D03*
G54D35*
G01X6661Y98500D02*
X3000D01*
G01X6661D02*
X12500D01*
G01X6661Y114500D02*
X3000D01*
G01X6661D02*
X12500D01*
G01X6661Y130000D02*
X3000D01*
G01X6661D02*
X11500D01*
G01X26500Y56396D02*
X21456D01*
G01X34000Y49880D02*
X27484Y56396D01*
X26500D01*
G01X21456D02*
X20828Y55768D01*
G01D02*
X11776D01*
G01X40000Y42500D02*
Y55260D01*
G03X39414Y56674I-2000J0D01*
G01X27484Y68604D01*
X26500D01*
G01X11776Y70768D02*
X18464D01*
G02X19878Y70182I0J-2000D01*
G01X20516Y69545D01*
G03X22787Y68604I2271J2271D01*
G01X26500D01*
G01X40000Y42500D02*
X48863D01*
G02X50278Y41914I0J-2000D01*
G01X58846Y33346D01*
G01X34000Y42500D02*
Y49880D01*
G01X92000Y45969D02*
Y42500D01*
G01X104000Y74000D02*
X100480Y77520D01*
G03X95700Y79500I-4780J-4780D01*
G01X95500D01*
G02X92500Y82500I0J3000D01*
G01Y86086D01*
X92500Y86521D01*
Y88500D01*
X96500Y92500D01*
G01X106500Y130500D02*
X102086Y126086D01*
G02X100672Y125500I-1414J1414D01*
G01X91000D01*
G01X97250Y148750D02*
X105914Y140086D01*
G02X106500Y138671I-1414J-1414D01*
G01Y130500D01*
G01X108626Y120815D02*
X103315D01*
G01D02*
X103000Y120500D01*
G01X108626Y106059D02*
X114441D01*
X114500Y106000D01*
G01X106500Y130500D02*
X116000Y121000D01*
Y120941D01*
G01D02*
Y110961D01*
G02X115391Y109491I-2078J0D01*
G01X115109Y109209D01*
G03X114500Y107739I1469J-1469D01*
G01Y106000D01*
G54D17*
X44000Y64000D03*
X54000D03*
X44000Y74000D03*
X54000D03*
X64000Y64000D03*
X74000D03*
X64000Y74000D03*
X74000D03*
X84000Y64000D03*
X94000D03*
X84000Y74000D03*
X94000D03*
X104000Y64000D03*
Y74000D03*
G54D26*
X73453Y20626D03*
X71484D03*
X69516D03*
X67547D03*
X65579D03*
X73453Y36374D03*
X71484D03*
X69516D03*
X67547D03*
X65579D03*
X75421Y20626D03*
Y36374D03*
G54D36*
G01X58846Y33346D02*
X60739Y31453D01*
X62626D01*
G01X51500Y44350D02*
X62429Y33421D01*
X62626D01*
G01X51500Y45000D02*
Y44350D01*
G01X67500Y18000D02*
X68500D01*
X69516Y19016D01*
Y20626D01*
G01X67547D02*
Y18047D01*
X67500Y18000D01*
G01D02*
X65500D01*
G01D02*
X58500D01*
G01X65579Y20626D02*
Y18079D01*
X65500Y18000D01*
G01X58500D02*
Y19878D01*
G02X59534Y22375I3532J0D01*
G01X60156Y22997D01*
G02X61562Y23579I1406J-1406D01*
G01X62626D01*
G01X58500Y18000D02*
Y13000D01*
G01X62626Y27516D02*
X61000D01*
G01D02*
X59516D01*
G01X58500Y29000D02*
X59516D01*
G01X58000Y26500D02*
X59984D01*
G01D02*
X61000Y27516D01*
G01X56500Y25000D02*
X58484D01*
X59984Y26500D01*
G01X59516Y29000D02*
X61000Y27516D01*
G01X57000Y30000D02*
X58516D01*
X59516Y29000D01*
G01X71484Y20626D02*
Y17270D01*
G02X70327Y14477I-3951J0D01*
G01X69000Y13150D01*
Y13000D01*
G01X73453Y20626D02*
Y18093D01*
G03X73945Y16905I1680J0D01*
G01X74311Y16539D01*
G02X75000Y14876I-1663J-1662D01*
G01Y13000D01*
G01X62626Y29484D02*
X69516D01*
G01D02*
X70500Y28500D01*
G01X62626Y25547D02*
X67547D01*
X70500Y28500D01*
G01X73453Y25547D02*
X70500Y28500D01*
G01X78374Y25547D02*
X73453D01*
G01X78374Y29484D02*
X71484D01*
G01X78374Y31453D02*
X73453D01*
G01X71484Y29484D02*
X70500Y28500D01*
G01X73453Y31453D02*
X71484Y29484D01*
G01X74500Y32500D02*
X73453Y31453D01*
G01X66500Y32500D02*
X69516Y29484D01*
G01X74500Y24500D02*
X73453Y25547D01*
G01X62626Y33421D02*
X65048D01*
G02X65955Y33045I0J-1282D01*
G01X66500Y32500D01*
G01X75421Y20626D02*
Y23048D01*
G03X75045Y23955I-1282J0D01*
G01X74500Y24500D01*
G01X78374Y33421D02*
X75952D01*
G03X75045Y33045I0J-1282D01*
G01X74500Y32500D01*
G01X78374Y27516D02*
X80500D01*
G01D02*
X81484D01*
G01X83016Y25000D02*
X80500Y27516D01*
G01X84000Y25000D02*
X83016D01*
G01X84500Y30000D02*
X82984D01*
X80500Y27516D01*
G01X82000Y13000D02*
Y19454D01*
G03X81508Y20642I-1680J0D01*
G01X78571Y23579D01*
X78374D01*
G01X75421Y20626D02*
X76874D01*
G01X76000Y18500D02*
X75421Y19079D01*
Y20626D01*
G54D18*
X52465Y102673D03*
Y104642D03*
Y106610D03*
Y108579D03*
Y110547D03*
Y112516D03*
Y114484D03*
Y116453D03*
Y118421D03*
Y120390D03*
Y122358D03*
Y124327D03*
X85535Y120390D03*
Y118421D03*
Y116453D03*
Y114484D03*
Y112516D03*
Y110547D03*
Y108579D03*
Y106610D03*
Y104642D03*
Y102673D03*
Y124327D03*
Y122358D03*
G54D27*
X56000Y52031D03*
Y45969D03*
X68000Y52031D03*
Y45969D03*
X74000Y52031D03*
Y45969D03*
X62000Y52031D03*
Y45969D03*
X80000Y52031D03*
Y45969D03*
X86000Y52031D03*
Y45969D03*
X92000Y52031D03*
Y45969D03*
G54D37*
G01X11886Y166843D02*
X18218D01*
X19456Y165604D01*
X25000D01*
G01D02*
Y163000D01*
X31000Y157000D01*
X33500D01*
G01X25000Y153396D02*
X19456D01*
G01D02*
X17903Y151843D01*
G01D02*
X11886D01*
G01X33500Y157000D02*
X40055Y150445D01*
X41795D01*
G01Y159500D02*
X66205D01*
G01D02*
X69351D01*
G02X73696Y157700I0J-6145D01*
G01X77000Y154396D01*
G01X85500Y163000D02*
X90600D01*
G01X85500D02*
X81896Y166604D01*
G01X85500Y157000D02*
X89000D01*
G01X77000Y154396D02*
X81355D01*
G03X83986Y155486I0J3721D01*
G01X85500Y157000D01*
G01X77000Y166604D02*
Y171500D01*
G01X81896Y166604D02*
X77000D01*
G54D19*
X41795Y150445D03*
Y159500D03*
Y168555D03*
G54D28*
X73921Y96965D03*
X71953D03*
X69984D03*
X68016D03*
X66047D03*
X64079D03*
X62110D03*
X60142D03*
X58173D03*
Y130035D03*
X60142D03*
X62110D03*
X64079D03*
X66047D03*
X68016D03*
X69984D03*
X71953D03*
X73921D03*
X79827Y96965D03*
X77858D03*
X75890D03*
Y130035D03*
X77858D03*
X79827D03*
G54D38*
G01X3608Y17540D02*
X12300D01*
G01X3608Y37540D02*
X12300D01*
G01X7532Y55768D02*
X11776D01*
G01X6661Y98500D02*
Y93839D01*
G01Y98500D02*
Y103661D01*
G01Y114500D02*
Y109839D01*
G01Y114500D02*
Y119661D01*
G01Y130000D02*
Y125339D01*
G01Y130000D02*
Y135161D01*
G01X7642Y151843D02*
X11886D01*
G01X12300Y33848D02*
Y37540D01*
G01Y13848D02*
Y17540D01*
G01D02*
Y21232D01*
G01X26500Y53137D02*
Y56396D01*
G01X12300Y37540D02*
Y41232D01*
G01X11776Y51524D02*
Y55768D01*
G01D02*
Y60012D01*
G01X26500Y56396D02*
Y59655D01*
G01X25000Y153396D02*
Y148235D01*
G01Y153396D02*
Y156655D01*
G01Y153396D02*
X29244D01*
G01X11886Y147599D02*
Y151843D01*
G01D02*
Y156087D01*
G01X23350Y195500D02*
X19500D01*
G01X23350Y193250D02*
Y195500D01*
G01D02*
Y197750D01*
G01Y195500D02*
X25850D01*
G01X34000Y40200D02*
Y42500D01*
G01X31550D02*
X34000D01*
G01D02*
X36450D01*
G01X33500Y163000D02*
Y168161D01*
G01X41795Y165493D02*
Y168555D01*
G01D02*
X47725D01*
G01X37579Y179650D02*
Y183500D01*
G01D02*
Y187350D01*
G01X33729Y183500D02*
X37579D01*
G01D02*
X41428D01*
G01X41795Y168555D02*
Y171617D01*
G01X36764Y168555D02*
X41795D01*
G01X47579Y183500D02*
X54882Y176197D01*
G03X60185Y174000I5303J5304D01*
G01X73736D01*
G03X75894Y174894I0J3052D01*
G01X77000Y176000D01*
G01X58500Y4550D02*
Y7000D01*
G01D02*
Y9450D01*
G01X56200Y7000D02*
X58500D01*
G01D02*
X60800D01*
G01X72700D02*
X75000D01*
G01X69000Y4550D02*
Y7000D01*
G01D02*
Y9450D01*
G01X66700Y7000D02*
X69000D01*
G01D02*
X71300D01*
G01X68000Y147000D02*
Y143000D01*
G01Y140550D02*
Y143000D01*
G01X65700D02*
X68000D01*
G01D02*
X70300D01*
G01X72756Y166604D02*
X77000D01*
G01X82000Y4550D02*
Y7000D01*
G01D02*
Y9450D01*
G01X79700Y7000D02*
X82000D01*
G01D02*
X84300D01*
G01X75000Y4550D02*
Y7000D01*
G01D02*
Y9450D01*
G01Y7000D02*
X77300D01*
G01X78374Y33421D02*
Y34712D01*
G01Y33421D02*
X79862D01*
G01X92000Y45969D02*
Y48244D01*
G01X89725Y45969D02*
X92000D01*
G01D02*
X94275D01*
G01X92000Y52031D02*
X92031D01*
X104000Y64000D01*
G01X85500Y160550D02*
Y163000D01*
G01D02*
Y165450D01*
G01X83200Y163000D02*
X85500D01*
G01X77000Y163345D02*
Y166604D01*
G01X98650Y116500D02*
Y120500D01*
G01X106000Y156500D02*
Y152000D01*
G01Y156500D02*
Y158950D01*
G01X103700Y156500D02*
X106000D01*
G01D02*
X108300D01*
G01X106000Y174500D02*
Y179000D01*
G01Y172050D02*
Y174500D01*
G01X103700D02*
X106000D01*
G01D02*
X108300D01*
G01X107650Y195500D02*
X112000D01*
G01X107650Y193250D02*
Y195500D01*
G01D02*
Y197750D01*
G01X105150Y195500D02*
X107650D01*
G01X120500Y33808D02*
Y37500D01*
G01Y13808D02*
Y17500D01*
G01D02*
Y21192D01*
G01Y17500D02*
X129192D01*
G01X120500Y37500D02*
Y41192D01*
G01Y37500D02*
X129192D01*
G54D29*
X66205Y159500D03*
G54D39*
G01X0Y0D02*
X133000D01*
Y202500D01*
X0D01*
Y0D01*
G01X10000Y89500D02*
X34086D01*
G02X36500Y88500I0J-3414D01*
G02X37500Y86086I-2414J-2414D01*
G01Y85500D01*
G02X34500Y82500I-3000J0D01*
G01X7914D01*
G02X5500Y83500I0J3414D01*
G02X4500Y85914I2414J2414D01*
G01Y86586D01*
G02X5500Y89000I3414J0D01*
G02X6707Y89500I1207J-1207D01*
G01X10000D01*
G01X40406Y10500D02*
G03I-5905J0D01*
G01X55906Y137000D02*
G03I-5905J0D01*
G01X104406Y10000D02*
G03I-5906J0D01*
G01X100500Y89000D02*
X124586D01*
G02X127000Y88000I0J-3414D01*
G02X128000Y85586I-2414J-2414D01*
G01Y85000D01*
G02X125000Y82000I-3000J0D01*
G01X98414D01*
G02X96000Y83000I0J3414D01*
G02X95000Y85414I2414J2414D01*
G01Y86086D01*
G02X96000Y88500I3414J0D01*
G02X97207Y89000I1207J-1207D01*
G01X100500D01*
G01X100405Y137500D02*
G03I-5905J0D01*
M02*
