G04 ================== begin FILE IDENTIFICATION RECORD ==================*
G04 Layout Name:  HMC472A_PCB_0323_1706.brd*
G04 Film Name:    02_BOTTOM*
G04 File Format:  Gerber RS274X*
G04 File Origin:  Cadence Allegro 16.6-2015-S108*
G04 Origin Date:  Sat Mar 23 17:55:25 2019*
G04 *
G04 Layer:  BOARD GEOMETRY/OUTLINE*
G04 Layer:  ETCH/BOTTOM*
G04 Layer:  PIN/BOTTOM*
G04 Layer:  VIA CLASS/BOTTOM*
G04 *
G04 Offset:    (0.000 0.000)*
G04 Mirror:    No*
G04 Mode:      Positive*
G04 Rotation:  0*
G04 FullContactRelief:  No*
G04 UndefLineWidth:     6.000*
G04 ================== end FILE IDENTIFICATION RECORD ====================*
%FSLAX25Y25*MOIN*%
%IR0*IPPOS*OFA0.00000B0.00000*MIA0B0*SFA1.00000B1.00000*%
%ADD19R,.11811X.082681*%
%ADD14R,.032X.035*%
%ADD17R,.035X.032*%
%ADD11R,.159839X.059839*%
%ADD10C,.022*%
%ADD12C,.07087*%
%ADD18R,.07087X.051181*%
%ADD13C,.059059*%
%ADD15C,.062988*%
%ADD20R,.07087X.027559*%
%ADD16R,.062988X.062988*%
%ADD21C,.008*%
%ADD22C,.01*%
%ADD23C,.02*%
%ADD24C,.015*%
%ADD25C,.006*%
%ADD26C,.118114*%
%ADD27R,.169844X.069844*%
%ADD30R,.042004X.045004*%
%ADD32R,.148114X.112684*%
%ADD29C,.089064*%
%ADD28C,.080874*%
%ADD31R,.080874X.061186*%
G75*
%LPD*%
G75*
G36*
G01X30732Y73268D02*
X16156D01*
G03Y68268I-4380J-2500D01*
G01X30940D01*
G03X34122Y69586I0J4500D01*
G01X38864Y74328D01*
G02X39547Y74042I283J-283D01*
G03X42871Y78308I4453J-42D01*
G02X42398Y78842I-101J387D01*
G03X42538Y79221I-7898J3142D01*
G03X42765Y80000I-8038J2764D01*
G01X131000D01*
Y2000D01*
X2000D01*
Y80000D01*
X37172D01*
Y79726D01*
G02X36975Y79510I-2673J2259D01*
G03X36963Y79498I1762J-1774D01*
G01X30732Y73268D01*
G37*
G36*
G01X2000Y89500D02*
Y200500D01*
X131000D01*
Y89500D01*
X128237D01*
Y100795D01*
X116241D01*
G02X115927Y101442I0J400D01*
G03X117000Y104550I-3962J3108D01*
G01Y106000D01*
G03X114129Y108472I-2500J0D01*
G02X113670Y108868I-59J396D01*
G01Y118441D01*
X116000D01*
G03Y123442I0J2500D01*
G01X113670D01*
Y123819D01*
X103582D01*
Y115844D01*
X102739Y115001D01*
X102659Y114999D01*
G03X100309Y113996I74J-3427D01*
G01X99226Y112914D01*
G02X98544Y113197I-283J283D01*
G01Y117663D01*
X90456D01*
Y114744D01*
G02X89914Y114370I-400J0D01*
G03X89204Y114500I-711J-1870D01*
G01X77500D01*
G03X76100Y111071I0J-2000D01*
G02X76107Y110792I-140J-143D01*
G03X76262Y108058I1393J-1292D01*
G02X76285Y107472I-261J-303D01*
G01X76156Y107344D01*
G03X75600Y106000I1344J-1344D01*
G01Y105800D01*
X72887D01*
X71344Y107344D01*
G03X68656Y104656I-1344J-1344D01*
G01X68971Y104342D01*
G02X68830Y104000I-141J-141D01*
G01X55564D01*
X55314Y103750D01*
X49400D01*
Y103000D01*
X48000D01*
G03Y98000I0J-2500D01*
G01X49400D01*
Y97250D01*
X55600D01*
Y98000D01*
X56636D01*
X57636Y99000D01*
X73750D01*
Y94900D01*
X78250D01*
Y96581D01*
G02X78592Y96723I200J0D01*
G01X78750Y96564D01*
Y93900D01*
X79500D01*
Y92500D01*
G03X84500I2500J0D01*
G01Y93900D01*
X85250D01*
Y96714D01*
X88432Y99896D01*
X89456D01*
Y98337D01*
X99544D01*
Y98602D01*
X99817D01*
X99872Y98555D01*
G03X102768Y97500I2896J3445D01*
G01X110172D01*
G03X112792Y98342I0J4500D01*
G02X113425Y98017I233J-325D01*
G01Y89500D01*
X43000D01*
Y94672D01*
G03X41682Y97854I-4500J0D01*
G01X35500Y104036D01*
Y125430D01*
G02X36219Y125672I400J0D01*
G03X36750Y125063I4703J3564D01*
G01X42652Y119160D01*
G03X46420Y117600I3768J3768D01*
G01X48000D01*
G03Y121400I0J1900D01*
G01X47732D01*
G02X47344Y121897I0J400D01*
G03X47258Y123078I-1844J461D01*
G02X47693Y123625I370J152D01*
G03X49694Y124639I307J1875D01*
G03X52157Y124100I2463J5362D01*
G01X58000D01*
G03X58165Y124107I0J1900D01*
G02X58600Y123708I35J-398D01*
G01Y121708D01*
X56656Y119764D01*
G03X59344Y117077I1344J-1344D01*
G01X61328Y119062D01*
G03X62400Y121650I-2588J2588D01*
G01Y122750D01*
X66100D01*
Y127250D01*
X62400D01*
Y127750D01*
X67100D01*
Y128500D01*
X67359D01*
G03X70882Y129545I0J6463D01*
G01X76776D01*
G03X77751Y129187I2411J5064D01*
G01X77900Y129148D01*
Y128250D01*
X83400D01*
Y127750D01*
X78900D01*
Y123250D01*
X83400D01*
Y122250D01*
X89600D01*
Y123000D01*
X91000D01*
G03Y128000I0J2500D01*
G01X89600D01*
Y128750D01*
X84100D01*
Y129250D01*
X88600D01*
Y133750D01*
X84100D01*
Y134750D01*
X83500D01*
Y136000D01*
G03X78500I-2500J0D01*
G01Y134750D01*
X78164D01*
X78108Y134797D01*
G03X77544Y135212I-3600J-4302D01*
G01Y137663D01*
X75000D01*
Y139464D01*
X89000Y153464D01*
X95483Y146982D01*
G03X99018Y150517I1768J1768D01*
G01X91250Y158286D01*
Y165480D01*
G03X89976Y168556I-4350J0D01*
G01X81556Y176976D01*
G03X78480Y178250I-3076J-3076D01*
G01X77000D01*
G03X75272Y177441I0J-2250D01*
G02X74623Y177489I-307J256D01*
G03X71656Y177844I-1623J-989D01*
G01X70162Y176349D01*
G02X69479Y176632I-283J283D01*
G01Y179256D01*
G03X71764Y185526I-1900J4244D01*
G02X72124Y186100I360J174D01*
G01X72292D01*
X73234Y185157D01*
G03X79534Y187718I4344J-1657D01*
G01X79418Y187772D01*
Y188100D01*
X80292D01*
X83234Y185157D01*
G03X86039Y187887I4344J-1657D01*
G01X85920Y187846D01*
X84349Y189417D01*
G02X84632Y190100I283J283D01*
G01X88292D01*
X93234Y185157D01*
G03X96039Y187887I4344J-1657D01*
G01X95920Y187846D01*
X90938Y192828D01*
G03X88350Y193900I-2588J-2588D01*
G01X36729D01*
G03X34141Y192828I0J-3660D01*
G01X31828Y190515D01*
G03X30100Y186343I4172J-4172D01*
G01Y181079D01*
G03X31828Y176907I5900J0D01*
G01X35022Y173713D01*
Y148201D01*
G02X34326Y147932I-400J0D01*
G03X34182Y148082I-3326J-3032D01*
G01X16752Y165512D01*
X16780Y165622D01*
G03X13106Y161949I-4894J1221D01*
G01X13216Y161976D01*
X30500Y144693D01*
Y103829D01*
G03X31818Y100646I4500J0D01*
G01X38000Y94464D01*
Y89500D01*
X34122D01*
G03X34086Y89500I-37J-3414D01*
G01X6707D01*
G03X6682Y89500I1J-1707D01*
G01X2000D01*
G37*
G36*
G01X44400Y167634D02*
X55920Y179154D01*
X56039Y179113D01*
G03X61764Y185526I1540J4387D01*
G02X62124Y186100I360J174D01*
G01X63033D01*
G02X63393Y185526I0J-400D01*
G03X65678Y179256I4185J-2026D01*
G01Y172366D01*
X57328Y164015D01*
G03X55600Y159843I4172J-4172D01*
G01Y140567D01*
G02X54870Y140341I-400J0D01*
G03X45130I-4870J-3341D01*
G02X44400Y140567I-330J226D01*
G01Y167634D01*
G37*
G36*
G01X38828Y178515D02*
G03X37770Y177074I4172J-4172D01*
G02X37133Y176977I-355J185D01*
G01X34942Y179168D01*
G02X35225Y179850I283J283D01*
G01X39197D01*
G02X39480Y179168I0J-400D01*
G01X38828Y178515D01*
G37*
G36*
G01X36787Y190100D02*
X43947D01*
G02X44230Y189417I0J-400D01*
G01X42828Y188015D01*
G03X41969Y186926I4172J-4172D01*
G02X41228Y187135I-341J209D01*
G01Y187150D01*
X34189D01*
Y187405D01*
G02X34212Y187445I1811J-1063D01*
G01X34219Y187456D01*
G02X34341Y187631I1781J-1112D01*
G02X34515Y187828I1659J-1288D01*
G03X34526Y187838I-1338J1349D01*
G01X36787Y190100D01*
G37*
G36*
G01X77000Y173750D02*
X78418D01*
X86750Y165418D01*
Y158286D01*
X71318Y142854D01*
G03X70000Y139672I3182J-3182D01*
G01Y137663D01*
X67456D01*
Y134250D01*
X66500D01*
Y135500D01*
G03X62966Y137776I-2500J0D01*
G02X62400Y138140I-165J364D01*
G01Y160213D01*
X70340Y168152D01*
G03X71900Y171920I-3768J3768D01*
G01Y172713D01*
X74344Y175156D01*
G03X74514Y175352I-1343J1344D01*
G02X74864Y175294I159J-121D01*
G03X77000Y173750I2136J706D01*
G37*
G36*
G01X104582Y104307D02*
X110805D01*
G02X111088Y103624I0J-400D01*
G01X109964Y102500D01*
X102975D01*
X102368Y103107D01*
G03X101634Y103734I-4319J-4319D01*
G02X101728Y104432I235J324D01*
G03X103825Y105783I-2075J5523D01*
G01X103899Y105858D01*
G02X104582Y105575I283J-283D01*
G01Y104307D01*
G37*
%LPC*%
G75*
G54D26*
X34500Y10500D03*
X98500Y10000D03*
X94500Y137500D03*
G54D27*
X12300Y17540D03*
Y37540D03*
X120500Y17500D03*
Y37500D03*
G54D30*
X52500Y106500D03*
G54D32*
X120831Y131972D03*
G54D29*
X44000Y64000D03*
X54000D03*
Y74000D03*
X64000Y64000D03*
X74000D03*
X64000Y74000D03*
X74000D03*
X84000Y64000D03*
X94000D03*
X84000Y74000D03*
X94000D03*
X104000Y64000D03*
Y74000D03*
G54D28*
X11776Y55768D03*
X11886Y151843D03*
G54D31*
X72500Y121396D03*
%LPD*%
G75*
G54D10*
X3500Y3500D03*
X8500D03*
X3500Y13500D03*
Y8500D03*
Y33500D03*
X7300Y17540D03*
X3500Y18500D03*
X7300Y37540D03*
X3500Y53500D03*
Y48500D03*
Y43500D03*
Y38500D03*
X8000Y63500D03*
X8500Y78500D03*
X3500D03*
Y73500D03*
Y68500D03*
Y63500D03*
Y58500D03*
X6661Y93839D03*
Y109839D03*
Y119661D03*
Y103661D03*
Y140161D03*
Y125339D03*
Y135161D03*
Y150161D03*
Y160161D03*
Y175161D03*
Y185161D03*
Y190161D03*
Y195161D03*
X22500Y9500D03*
X14500D03*
X13500Y3500D03*
X18500D03*
X23500D03*
X28500D03*
X29500Y18000D03*
X29747Y33500D03*
X12300Y17540D03*
X17300D03*
X22540D03*
X29500Y21500D03*
X28500Y39500D03*
X17000Y49500D03*
X23500Y46000D03*
X11000D03*
X12300Y37540D03*
X17300D03*
X22300D03*
X26000Y63000D03*
X17500Y62500D03*
X28500Y78500D03*
X23500D03*
X18500D03*
X13500D03*
X31661Y95161D03*
X25161D03*
X16661D03*
Y105161D03*
Y115161D03*
X25161Y105161D03*
Y115161D03*
X16661Y125161D03*
Y135161D03*
X25161Y125161D03*
Y135161D03*
X16661Y145161D03*
X25161D03*
X25000Y148235D03*
X16661Y185161D03*
Y175161D03*
X26661D03*
Y185161D03*
X31661Y175161D03*
X11661Y195161D03*
X16661Y190161D03*
X26661D03*
X19500Y195500D03*
X52500Y9500D03*
X45000D03*
X43500Y3500D03*
X48500D03*
X53500D03*
X33500D03*
X38500D03*
X51500Y16500D03*
X43500Y17000D03*
X49747Y33500D03*
X44747D03*
X39747D03*
X34747D03*
X49500Y21500D03*
X44500D03*
X39500D03*
X34500D03*
X35000Y54000D03*
X50000Y46500D03*
Y50500D03*
X46000Y48500D03*
Y53500D03*
X38500Y69500D03*
X33500Y78500D03*
X52000Y96000D03*
Y92500D03*
X48500D03*
X48000Y100500D03*
X45500Y122358D03*
X48000Y119500D03*
X38000Y107500D03*
X36500Y122500D03*
X48000Y106000D03*
Y125500D03*
X50500Y165500D03*
X49500Y149500D03*
Y155000D03*
X33000Y151500D03*
X47725Y168555D03*
X33500Y168161D03*
X52000Y195500D03*
X73500Y3500D03*
X58500D03*
X63500D03*
X68500D03*
X74500Y24500D03*
X70500D03*
X66500D03*
Y28500D03*
Y32500D03*
X70500D03*
X74500D03*
Y28500D03*
X70500D03*
X54747Y33500D03*
X54500Y21500D03*
X62500Y92500D03*
X72858D03*
X67858D03*
X57858D03*
X70000Y106000D03*
Y113000D03*
X64000D03*
Y105500D03*
Y120500D03*
X58000Y118421D03*
Y126000D03*
X57500Y134000D03*
X64000Y135500D03*
X68000Y147000D03*
X63500D03*
X73000D03*
X68000Y150000D03*
X63500Y177500D03*
X73000Y176500D03*
X72000Y195500D03*
X67000D03*
X62000D03*
X57000D03*
X89000Y9500D03*
X78500Y3500D03*
X83500D03*
X88500D03*
X93500D03*
X89500Y17000D03*
X85500Y33500D03*
X90500D03*
X95500D03*
X82000D03*
X95500Y21500D03*
X90500D03*
X85500D03*
X90500Y38500D03*
X96500Y92500D03*
X77858D03*
X82000D03*
X81000Y120500D03*
X91000D03*
X94500D03*
X81000Y117500D03*
X89204Y112500D03*
X77500D03*
Y106000D03*
Y109500D03*
X85000Y136000D03*
X81000D03*
X91000Y125500D03*
X93500Y157000D03*
X97250Y148750D03*
X89000Y157000D03*
X97000Y174500D03*
Y167500D03*
X91500Y170000D03*
X83500Y180000D03*
X77000Y171500D03*
Y176000D03*
Y195500D03*
X109500Y9500D03*
X103500Y3500D03*
X108500D03*
X113500D03*
X118500D03*
X99000Y18000D03*
X100500Y33500D03*
X105500D03*
X109500Y17500D03*
X115500D03*
X105500Y21500D03*
X100500D03*
X98500Y38500D03*
X115500Y53500D03*
Y43500D03*
X110500D03*
Y53500D03*
X105500D03*
Y43500D03*
Y38500D03*
X115500Y37500D03*
X110500D03*
Y73500D03*
X115500D03*
Y63500D03*
X118500Y78500D03*
X113500D03*
X108500D03*
X102000Y92500D03*
X107500D03*
X112000D03*
X103500Y103500D03*
X98650Y120500D03*
X103000D03*
Y111000D03*
X114500Y106000D03*
X116000Y120941D03*
X100000Y130500D03*
X102500Y137000D03*
X106000Y146500D03*
X115000Y145000D03*
Y152000D03*
Y156500D03*
X111000D03*
X106000Y152000D03*
Y184000D03*
X112000Y184500D03*
Y178500D03*
Y172500D03*
X106000Y179000D03*
Y190000D03*
X112000D03*
X119000Y195500D03*
X112000D03*
X121500Y9000D03*
X123500Y3500D03*
X128500D03*
Y8500D03*
Y13500D03*
X120500Y17500D03*
X125500D03*
X120500Y53500D03*
Y43500D03*
X128500D03*
Y48500D03*
Y53500D03*
X120500Y37500D03*
X125500D03*
X120500Y73500D03*
Y63500D03*
X128500D03*
Y68500D03*
Y73500D03*
Y78500D03*
X123500D03*
X128500Y58500D03*
X129500Y92500D03*
Y98000D03*
Y105000D03*
X123000D03*
Y112500D03*
X129500D03*
X126500Y145000D03*
Y152000D03*
Y163500D03*
Y173500D03*
Y183500D03*
Y193500D03*
Y199000D03*
G54D20*
X108626Y106185D03*
Y111106D03*
Y116035D03*
Y120941D03*
G54D11*
X12300Y17540D03*
Y37540D03*
X120500Y17500D03*
Y37500D03*
G54D21*
G01X48000Y119500D02*
X46420D01*
G02X43996Y120504I0J3428D01*
G01X38094Y126406D01*
G02X36922Y129235I2829J2828D01*
G01Y173771D01*
G03X36406Y175016I-1760J0D01*
G01X33172Y178250D01*
G02X32000Y181079I2829J2829D01*
G01Y186343D01*
G02X33172Y189172I4000J0D01*
G01X35484Y191484D01*
G02X36729Y192000I1245J-1245D01*
G01X88350D01*
G02X89594Y191484I0J-1760D01*
G01X97579Y183500D01*
G01X57579D02*
X43015Y168937D01*
G03X42500Y167692I1245J-1245D01*
G01Y135657D01*
G03X43672Y132828I4000J0D01*
G01X49328Y127172D01*
G03X52157Y126000I2828J2829D01*
G01X58000D01*
G01X87579Y183500D02*
X81594Y189484D01*
G03X80350Y190000I-1245J-1245D01*
G01X49157D01*
G03X46328Y188828I0J-4000D01*
G01X44172Y186672D01*
G03X43000Y183843I2829J-2828D01*
G01Y181657D01*
G02X41828Y178828I-4000J0D01*
G01X40172Y177172D01*
G03X39000Y174343I2829J-2828D01*
G01Y130515D01*
G03X40172Y127686I4000J0D01*
G01X45500Y122358D01*
G01X77579Y183500D02*
X73594Y187484D01*
G03X72350Y188000I-1245J-1245D01*
G01X55000D01*
G03X52500Y185500I0J-2500D01*
G01Y183235D01*
G02X51328Y180406I-4000J0D01*
G01X42172Y171250D01*
G03X41000Y168421I2829J-2829D01*
G01Y134157D01*
G03X42172Y131328I4000J0D01*
G01X48000Y125500D01*
G01X108626Y111106D02*
X107463D01*
G03X105751Y110397I0J-2421D01*
G01X102481Y107127D01*
G02X99653Y105955I-2828J2829D01*
G01X82928D01*
G03X80584Y104984I0J-3315D01*
G01X80471Y104871D01*
G02X78127Y103900I-2344J2344D01*
G01X72829D01*
G02X71584Y104416I0J1760D01*
G01X70000Y106000D01*
G01X73000Y176500D02*
X70516Y174016D01*
G03X70000Y172771I1245J-1245D01*
G01Y171920D01*
G02X68996Y169496I-3428J0D01*
G01X61016Y161516D01*
G03X60500Y160271I1245J-1245D01*
G01Y121650D01*
G02X59985Y120405I-1760J0D01*
G01X58000Y118421D01*
G01X67579Y183500D02*
Y172308D01*
G02X67063Y171063I-1760J0D01*
G01X58672Y162672D01*
G03X57500Y159843I2829J-2828D01*
G01Y134000D01*
G01X103000Y111000D02*
X101172Y109172D01*
G02X98343Y108000I-2829J2829D01*
G01X80834D01*
G03X78556Y107056I0J-3221D01*
G01X77500Y106000D01*
G01Y109500D02*
X96843D01*
G03X99672Y110672I0J4000D01*
G01X101652Y112653D01*
G02X102733Y113100I1080J-1080D01*
G01X102893D01*
G03X103973Y113548I0J1528D01*
G01X105751Y115326D01*
G02X107463Y116035I1712J-1712D01*
G01X108626D01*
G54D12*
X11776Y55768D03*
Y70768D03*
X11886Y151843D03*
Y166843D03*
G54D22*
G01X77500Y112500D02*
X89204D01*
G54D13*
X44000Y64000D03*
X54000D03*
X44000Y74000D03*
X54000D03*
X64000Y64000D03*
X74000D03*
X64000Y74000D03*
X74000D03*
X84000Y64000D03*
X94000D03*
X84000Y74000D03*
X94000D03*
X104000Y64000D03*
Y74000D03*
G54D23*
G01X11776Y70768D02*
X30940D01*
G03X32354Y71354I0J2000D01*
G01X38743Y77743D01*
G03X40500Y81985I-4243J4243D01*
G01Y94672D01*
G03X39914Y96086I-2000J0D01*
G01X33586Y102414D01*
G02X33000Y103829I1414J1414D01*
G01Y144900D01*
G03X32414Y146314I-2000J0D01*
G01X11886Y166843D01*
G01X52500Y106500D02*
X48500D01*
G01D02*
X48000Y106000D01*
G01X82000Y97000D02*
X81850D01*
X79459Y99391D01*
G03X74368Y101500I-5091J-5091D01*
G01X56600D01*
X55600Y100500D01*
X52500D01*
G01D02*
X48000D01*
G01X64000Y125000D02*
Y120500D01*
G01Y131000D02*
X67359D01*
G03X70161Y132161I0J3962D01*
G01X71604Y133604D01*
X72500D01*
G01X64000Y131000D02*
Y135500D01*
G01X81000Y131500D02*
X79188D01*
G02X76989Y132411I0J3109D01*
G01X76707Y132693D01*
G03X74508Y133604I-2198J-2198D01*
G01X72500D01*
G01X89000Y157000D02*
X73086Y141086D01*
G03X72500Y139672I1414J-1414D01*
G01Y133604D01*
G01X77858Y92500D02*
X76000Y94358D01*
G01D02*
Y97000D01*
G01X82000D02*
Y92500D01*
G01X94500Y102396D02*
X88225D01*
G03X86810Y101810I0J-2000D01*
G01X82000Y97000D01*
G01X114500Y106000D02*
Y104550D01*
G02X113758Y102758I-2535J0D01*
G01X111586Y100586D01*
G02X110172Y100000I-1414J1414D01*
G01X102768D01*
G02X101354Y100586I0J2000D01*
G01X100600Y101339D01*
G03X98049Y102396I-2551J-2551D01*
G01X94500D01*
G01X85000Y136000D02*
X86500Y134500D01*
G01D02*
Y131500D01*
G01X81000D02*
Y136000D01*
G01X86500Y125500D02*
X91000D01*
G01X97250Y148750D02*
X89000Y157000D01*
G01X103500Y103500D02*
X106185Y106185D01*
X108626D01*
G01Y120941D02*
X116000D01*
G54D14*
X52500Y100500D03*
Y106500D03*
X64000Y125000D03*
Y131000D03*
X81000Y125500D03*
Y131500D03*
X86500Y125500D03*
Y131500D03*
G54D24*
G01X3608Y17540D02*
X12300D01*
G01X3608Y37540D02*
X12300D01*
G01X7532Y55768D02*
X11776D01*
G01X7642Y151843D02*
X11886D01*
G01X12300Y33848D02*
Y37540D01*
G01Y13848D02*
Y17540D01*
G01D02*
Y21232D01*
G01Y17540D02*
X20992D01*
G01X12300Y37540D02*
Y41232D01*
G01Y37540D02*
X20992D01*
G01X11776Y51524D02*
Y55768D01*
G01D02*
Y60012D01*
G01Y55768D02*
X16020D01*
G01X11886Y147599D02*
Y151843D01*
G01D02*
Y156087D01*
G01Y151843D02*
X16130D01*
G01X52500Y104050D02*
Y106500D01*
G01D02*
Y108950D01*
G01Y106500D02*
X54800D01*
G01X37579Y179650D02*
Y183500D01*
G01D02*
Y187350D01*
G01X72500Y121396D02*
X73484D01*
X77380Y117500D01*
G01X72500Y118137D02*
Y121396D01*
G01D02*
Y124655D01*
G01X68256Y121396D02*
X72500D01*
G01X64000Y125000D02*
Y127450D01*
G01Y125000D02*
X66300D01*
G01X81000Y125500D02*
Y120500D01*
G01X94500Y114604D02*
Y120500D01*
G01X77380Y117500D02*
X81000D01*
G01X86500Y129050D02*
Y131500D01*
G01D02*
X88800D01*
G01X81000Y125500D02*
Y127950D01*
G01X78700Y125500D02*
X81000D01*
G01X77000Y176000D02*
X78480D01*
G02X79965Y175385I0J-2100D01*
G01X88385Y166965D01*
G02X89000Y165480I-1485J-1485D01*
G01Y157000D01*
G01X111808Y17500D02*
X120500D01*
G01X111808Y37500D02*
X120500D01*
G01Y33808D02*
Y37500D01*
G01Y13808D02*
Y17500D01*
G01D02*
Y21192D01*
G01Y17500D02*
X129192D01*
G01X120500Y37500D02*
Y41192D01*
G01Y37500D02*
X129192D01*
G54D15*
X47579Y183500D03*
X77579D03*
X67579D03*
X57579D03*
X97579D03*
X87579D03*
G54D25*
G01X0Y0D02*
X133000D01*
Y202500D01*
X0D01*
Y0D01*
G01X10000Y89500D02*
X34086D01*
G02X36500Y88500I0J-3414D01*
G02X37500Y86086I-2414J-2414D01*
G01Y85500D01*
G02X34500Y82500I-3000J0D01*
G01X7914D01*
G02X5500Y83500I0J3414D01*
G02X4500Y85914I2414J2414D01*
G01Y86586D01*
G02X5500Y89000I3414J0D01*
G02X6707Y89500I1207J-1207D01*
G01X10000D01*
G01X40406Y10500D02*
G03I-5905J0D01*
G01X55906Y137000D02*
G03I-5905J0D01*
G01X104406Y10000D02*
G03I-5906J0D01*
G01X100500Y89000D02*
X124586D01*
G02X127000Y88000I0J-3414D01*
G02X128000Y85586I-2414J-2414D01*
G01Y85000D01*
G02X125000Y82000I-3000J0D01*
G01X98414D01*
G02X96000Y83000I0J3414D01*
G02X95000Y85414I2414J2414D01*
G01Y86086D01*
G02X96000Y88500I3414J0D01*
G02X97207Y89000I1207J-1207D01*
G01X100500D01*
G01X100405Y137500D02*
G03I-5905J0D01*
G54D16*
X37579Y183500D03*
G54D17*
X76000Y97000D03*
X82000D03*
G54D18*
X72500Y121396D03*
Y133604D03*
X94500Y114604D03*
Y102396D03*
G54D19*
X120831Y95161D03*
Y131972D03*
M02*
